<svg xmlns="http://www.w3.org/2000/svg" viewBox="0 0 41 41"><defs><style>.a{fill:none;stroke:#d1d2d5;stroke-miterlimit:10;fill-rule:evenodd;}.b{fill:#d1d2d5;}</style></defs><title>FB_1</title><path class="a" d="M20.5.5a20,20,0,1,1-20,20A20,20,0,0,1,20.5.5Z"/><path class="b" d="M20.5,11.91c-5.11,0-9.24,3.83-9.24,8.56a8.32,8.32,0,0,0,3.45,6.67V30.4l3.13-1.72A10.4,10.4,0,0,0,20.5,29c5.11,0,9.24-3.84,9.24-8.56S25.61,11.91,20.5,11.91Zm.93,11.53-2.35-2.51-4.6,2.51,5.05-5.37,2.41,2.52,4.51-2.52Z"/></svg>