<svg xmlns="http://www.w3.org/2000/svg" viewBox="0 0 57.33 95.56"><defs><style>.a{fill:#d6c3b4;}</style></defs><title>odnoklassniki-logo</title><path class="a" d="M24,67.3c-7.4-.8-14.1-2.6-19.8-7.1-.7-.6-1.4-1.1-2.1-1.7-2.5-2.4-2.8-5.2-.8-8,1.7-2.4,4.5-3.1,7.5-1.7a8.64,8.64,0,0,1,1.6,1,32.51,32.51,0,0,0,36,.3,9.73,9.73,0,0,1,3.5-1.8,5.47,5.47,0,0,1,6.3,2.5c1.6,2.5,1.5,5-.4,7a30.67,30.67,0,0,1-10.5,6.8,51.54,51.54,0,0,1-11.9,2.7c.6.7.9,1,1.3,1.4,5.5,5.5,11,11,16.5,16.6a5.26,5.26,0,0,1,1.2,6.4,6.39,6.39,0,0,1-6.1,3.8,5.94,5.94,0,0,1-3.9-2C38.31,89.3,34,85.2,30,81c-1.2-1.2-1.8-1-2.8.1-4.2,4.3-8.4,8.5-12.7,12.7A5.41,5.41,0,0,1,8.11,95a6.26,6.26,0,0,1-3.7-6,6.17,6.17,0,0,1,2-4l16.4-16.4C23.21,68.2,23.51,67.8,24,67.3Z"/><path class="a" d="M28.51,48.3a24.24,24.24,0,0,1-24-24.2,24.15,24.15,0,1,1,48.3.4A24,24,0,0,1,28.51,48.3Zm12.1-24.2a11.8,11.8,0,1,0-23.6.1,11.8,11.8,0,1,0,23.6-.1Z"/></svg>