<svg xmlns="http://www.w3.org/2000/svg" viewBox="0 0 41 41"><defs><style>.a{fill:none;stroke:#d1d2d5;stroke-miterlimit:10;fill-rule:evenodd;}.b{fill:#d1d2d5;}</style></defs><title>OK_1</title><path class="a" d="M20.5.5a20,20,0,1,1-20,20A20,20,0,0,1,20.5.5Z"/><path class="b" d="M19.61,24.21a7.1,7.1,0,0,1-3.77-1.34c-.13-.11-.27-.21-.4-.33a1.13,1.13,0,0,1,1.28-1.84,2,2,0,0,1,.31.19,6.17,6.17,0,0,0,6.84.06,2.15,2.15,0,0,1,.67-.35,1.06,1.06,0,0,1,1.2.48,1,1,0,0,1-.07,1.34,5.67,5.67,0,0,1-2,1.28,9,9,0,0,1-2.26.51c.11.13.17.19.24.26l3.14,3.15A1,1,0,0,1,25,28.84a1.24,1.24,0,0,1-1.16.73,1.09,1.09,0,0,1-.73-.38c-.79-.79-1.6-1.57-2.37-2.38-.22-.23-.33-.19-.53,0-.8.82-1.6,1.63-2.41,2.43a1,1,0,0,1-1.22.21,1.23,1.23,0,0,1-.72-1.13,1.17,1.17,0,0,1,.39-.77l3.09-3.1Z"/><path class="b" d="M20.46,20.61a4.6,4.6,0,1,1,4.63-4.53A4.59,4.59,0,0,1,20.46,20.61ZM22.75,16a2.25,2.25,0,1,0-2.24,2.26A2.24,2.24,0,0,0,22.75,16Z"/></svg>