<svg xmlns="http://www.w3.org/2000/svg" viewBox="0 0 41 41"><defs><style>.a{fill:none;stroke:#d1d2d5;stroke-miterlimit:10;fill-rule:evenodd;}.b{fill:#d1d2d5;}</style></defs><title>Phone_1</title><path class="a" d="M20.5.5a20,20,0,1,1-20,20A20,20,0,0,1,20.5.5Z"/><path class="b" d="M29.18,25.77a1,1,0,0,0-.27-.68,17.16,17.16,0,0,0-2-1.62c-.45-.3-1.14-.71-1.43-.87a1.64,1.64,0,0,0-1.23-.12,1,1,0,0,0-.21.1,2.72,2.72,0,0,0-.68.68,5.27,5.27,0,0,1-.49.57h0a.51.51,0,0,1-.18.09h0c-.38.19-.89.07-1.73-.32a7.93,7.93,0,0,1-1.9-1.23,7.41,7.41,0,0,1-1.44-1.62,4.48,4.48,0,0,1-.72-2,1.53,1.53,0,0,1,.18-.63h0s.06-.07.09-.07a4.64,4.64,0,0,0,.41-.35c.69-.54.81-.72.93-1a1.61,1.61,0,0,0-.3-1.22,14.12,14.12,0,0,0-2.57-3.24,2.58,2.58,0,0,1-.32-.18,2.11,2.11,0,0,0-.75-.05,4.37,4.37,0,0,0-1.34.81A5.59,5.59,0,0,0,12.05,14c-.33.56-.3,1,.09,2.11a18.56,18.56,0,0,0,1.41,2.82h0l.36.57v.06c.13.18.25.39.37.56s.09.16.14.21.19.29.3.43.3.41.48.62a22.63,22.63,0,0,0,6,5.46.11.11,0,0,1,.09.06l1.07.63c.06,0,.09.06.16.09a12,12,0,0,0,1.13.57s.09,0,.12,0c.39.18.81.37,1.22.54a1.85,1.85,0,0,0,1.08.21,1.81,1.81,0,0,0,.51-.08,2.83,2.83,0,0,0,.71-.37.6.6,0,0,0,.15-.09.86.86,0,0,0,.18-.14,7.66,7.66,0,0,0,1.06-1.07,3.29,3.29,0,0,0,.44-.74,5.83,5.83,0,0,0,.06-.72"/></svg>