<svg xmlns="http://www.w3.org/2000/svg" viewBox="0 0 40 40"><defs><style>.a{fill:#d6c3b4;fill-rule:evenodd;}.b{fill:#fff;}</style></defs><title>Phone_a</title><path class="a" d="M20,0A20,20,0,1,1,0,20,20,20,0,0,1,20,0Z"/><path class="b" d="M29.32,25.27a1,1,0,0,0-.27-.68,17.16,17.16,0,0,0-2-1.62c-.45-.3-1.13-.71-1.43-.87A1.64,1.64,0,0,0,24.4,22a1,1,0,0,0-.21.1,2.72,2.72,0,0,0-.68.68,5.27,5.27,0,0,1-.49.57h0a.51.51,0,0,1-.18.09h0c-.38.19-.89.07-1.73-.32a7.93,7.93,0,0,1-1.9-1.23,7.36,7.36,0,0,1-1.43-1.62,4.25,4.25,0,0,1-.72-2,1.52,1.52,0,0,1,.17-.63h0s.06-.07.09-.07a4.64,4.64,0,0,0,.41-.35c.69-.54.81-.72.93-1A1.65,1.65,0,0,0,18.37,15a14.43,14.43,0,0,0-2.58-3.24,3.58,3.58,0,0,1-.32-.18,2.1,2.1,0,0,0-.75-.05,4.37,4.37,0,0,0-1.34.81,5.59,5.59,0,0,0-1.19,1.14c-.33.56-.3,1,.09,2.11a18.56,18.56,0,0,0,1.41,2.82h0l.37.57V19c.12.18.24.39.36.56s.09.16.15.21.19.29.29.43.3.41.48.62a22.63,22.63,0,0,0,6,5.46.11.11,0,0,1,.09.06l1.08.63s.08.06.15.09a12,12,0,0,0,1.13.57s.09,0,.12,0c.39.18.81.37,1.22.54a1.85,1.85,0,0,0,1.08.21,1.81,1.81,0,0,0,.51-.08,2.83,2.83,0,0,0,.71-.37.6.6,0,0,0,.15-.09.86.86,0,0,0,.18-.14,7.15,7.15,0,0,0,1.06-1.07,3.29,3.29,0,0,0,.44-.74,4.37,4.37,0,0,0,.06-.72"/></svg>