<svg xmlns="http://www.w3.org/2000/svg" viewBox="0 0 243.5 310.14"><defs><style>.a{fill:#d6c3b4;}</style></defs><title>pinterest</title><path class="a" d="M212.1,31.8C190.7,11.3,161.2,0,128.9,0,79.6,0,49.2,20.2,32.5,37.2,11.8,58.1,0,85.8,0,113.3c0,34.5,14.4,61,38.6,70.9a12.28,12.28,0,0,0,4.9,1c5.1,0,9.1-3.3,10.5-8.7.8-3.1,2.7-10.6,3.5-13.9,1.8-6.5.3-9.6-3.5-14.1-7-8.3-10.2-18.1-10.2-30.8,0-37.8,28.2-78,80.4-78,41.4,0,67.1,23.5,67.1,61.4,0,23.9-5.1,46.1-14.5,62.3-6.5,11.3-17.9,24.8-35.5,24.8-7.6,0-14.4-3.1-18.7-8.6-4.1-5.1-5.4-11.8-3.8-18.7,1.8-7.8,4.4-16,6.8-23.8,4.4-14.4,8.6-28,8.6-38.8,0-18.6-11.4-31-28.4-31-21.6,0-38.5,21.9-38.5,49.9a72.92,72.92,0,0,0,5.3,27.9c-2.7,11.5-18.9,80-21.9,92.9-1.8,7.5-12.4,67,5.2,71.8,19.8,5.3,37.6-52.6,39.4-59.2,1.5-5.3,6.6-25.5,9.7-37.8,9.6,9.2,25,15.5,40,15.5,28.3,0,53.7-12.7,71.6-35.8,17.4-22.4,26.9-53.7,26.9-88C243.7,77.5,232.1,51.1,212.1,31.8Z"/></svg>