<svg xmlns="http://www.w3.org/2000/svg" viewBox="0 0 40 40"><defs><style>.a{fill:#d6c3b4;fill-rule:evenodd;}.b{fill:#fff;}</style></defs><title>Telegram_a</title><path class="a" d="M20,0A20,20,0,1,1,0,20,20,20,0,0,1,20,0Z"/><path class="b" d="M10.15,19.91l4.58,1.71,1.77,5.73a.55.55,0,0,0,.7.32l.12-.07,2.58-2.13a.75.75,0,0,1,.92,0l4.6,3.34a.57.57,0,0,0,.76-.18.47.47,0,0,0,.06-.15l3.37-16.22a.54.54,0,0,0-.41-.64.58.58,0,0,0-.32,0L10.15,18.87a.55.55,0,0,0,0,1Zm6.06.82,9-5.51a.15.15,0,0,1,.21,0,.15.15,0,0,1,0,.19L18,22.33a1.58,1.58,0,0,0-.5.85l-.24,1.87a.24.24,0,0,1-.46,0l-1-3.36a.9.9,0,0,1,.4-1Z"/></svg>