<svg xmlns="http://www.w3.org/2000/svg" viewBox="0 0 41 41"><defs><style>.a{fill:none;stroke:#d1d2d5;stroke-miterlimit:10;fill-rule:evenodd;}.b{fill:#d1d2d5;}</style></defs><title>Telegram_1</title><path class="a" d="M20.5.5a20,20,0,1,1-20,20A20,20,0,0,1,20.5.5Z"/><path class="b" d="M10.13,20.41l4.58,1.71,1.77,5.73a.54.54,0,0,0,.69.32l.13-.07L19.87,26a.77.77,0,0,1,.93,0l4.6,3.34a.56.56,0,0,0,.75-.18,1,1,0,0,0,.07-.15l3.37-16.22a.54.54,0,0,0-.73-.61L10.13,19.37a.55.55,0,0,0,0,1Zm6.06.82,9-5.51a.15.15,0,0,1,.21,0,.14.14,0,0,1,0,.19L18,22.83a1.52,1.52,0,0,0-.5.85l-.25,1.87a.24.24,0,0,1-.29.17.29.29,0,0,1-.17-.17l-1-3.36a.91.91,0,0,1,.41-1Z"/></svg>