<svg xmlns="http://www.w3.org/2000/svg" viewBox="0 0 612 497.2"><defs><style>.a{fill:#d6c3b4;}</style></defs><title>twitter-logo-silhouette</title><path class="a" d="M612,58.8a252.46,252.46,0,0,1-72.1,19.8A126.26,126.26,0,0,0,595.1,9.2a253.59,253.59,0,0,1-79.8,30.5,125.58,125.58,0,0,0-217.2,85.8,123,123,0,0,0,3.3,28.6C197.1,148.9,104.6,98.9,42.6,22.9A125.7,125.7,0,0,0,81.4,190.5a124.85,124.85,0,0,1-56.9-15.8v1.6A125.64,125.64,0,0,0,125.2,299.4a128.35,128.35,0,0,1-33.1,4.4,122.64,122.64,0,0,1-23.6-2.3,125.63,125.63,0,0,0,117.3,87.2A251.54,251.54,0,0,1,29.9,442.4,268.27,268.27,0,0,1,0,440.7a354.69,354.69,0,0,0,192.4,56.5c230.9,0,357.2-191.3,357.2-357.2l-.4-16.3A253.22,253.22,0,0,0,612,58.8Z"/></svg>