<svg xmlns="http://www.w3.org/2000/svg" viewBox="0 0 40 40"><defs><style>.a{fill:#d6c3b4;fill-rule:evenodd;}.b{fill:#fff;}</style></defs><title>Viber_a</title><path class="a" d="M20,0A20,20,0,1,1,0,20,20,20,0,0,1,20,0Z"/><path class="b" d="M19.83,12.13c.15-.12.24-.12.72-.12a3.55,3.55,0,0,1,.81.06,7.16,7.16,0,0,1,2.48.68A8.23,8.23,0,0,1,26,14.25a6.68,6.68,0,0,1,1.47,2,9.21,9.21,0,0,1,.92,3.82c0,.48,0,.6-.11.75a.54.54,0,0,1-.75.06.44.44,0,0,1-.12-.15c-.07-.09-.07-.18-.09-.57a10.42,10.42,0,0,0-.13-1.47A6.76,6.76,0,0,0,20.7,13c-.57,0-.65,0-.81-.13a.53.53,0,0,1-.05-.75l.05-.06"/><path class="b" d="M22.79,15.86a5.71,5.71,0,0,0-2.21-.65A.83.83,0,0,1,20,15a.45.45,0,0,1-.06-.6c.15-.24.39-.27,1.08-.15a5.55,5.55,0,0,1,4,2.34,5.11,5.11,0,0,1,.9,2.47,6.25,6.25,0,0,1,0,1.06.46.46,0,0,1-.27.26.51.51,0,0,1-.48,0c-.2-.12-.3-.26-.3-.74a4.26,4.26,0,0,0-.53-2.1,4.19,4.19,0,0,0-1.56-1.62"/><path class="b" d="M23.54,19.82a.57.57,0,0,1-.66,0c-.15-.09-.18-.21-.21-.51a2.75,2.75,0,0,0-.21-.9,1.55,1.55,0,0,0-1.43-.9.64.64,0,0,1-.57-.21.51.51,0,0,1,0-.73l.11-.08c.12-.06.15-.06.39,0a2.61,2.61,0,0,1,.48.05,3.12,3.12,0,0,1,1.37.66,2.63,2.63,0,0,1,.81,1.74c.05.5,0,.71-.16.87"/><path class="b" d="M28.36,26.19a1,1,0,0,0-.27-.69,19.77,19.77,0,0,0-2-1.62c-.45-.29-1.13-.71-1.43-.86A1.64,1.64,0,0,0,23.42,23a1,1,0,0,0-.21.09,2.83,2.83,0,0,0-.69.69,5.08,5.08,0,0,1-.47.57h0a1.51,1.51,0,0,1-.18.09h0c-.39.18-.9.06-1.74-.33a8.17,8.17,0,0,1-1.88-1.32,7.67,7.67,0,0,1-1.44-1.62,4.47,4.47,0,0,1-.72-2,1.39,1.39,0,0,1,.18-.63h0s.06-.06.09-.06.27-.24.42-.36c.69-.53.81-.72.92-1a1.64,1.64,0,0,0-.24-1.31,14.39,14.39,0,0,0-2.57-3.24c-.08-.06-.24-.12-.33-.18a2.3,2.3,0,0,0-.74-.06,4.41,4.41,0,0,0-1.35.81,6.12,6.12,0,0,0-1.2,1.13c-.33.57-.3,1,.09,2.13a20.06,20.06,0,0,0,1.38,2.93h0c.11.18.23.39.36.57v.05c.11.18.23.39.35.57s.09.15.15.21a3.19,3.19,0,0,0,.3.42c.15.21.3.41.48.62a22.44,22.44,0,0,0,6,5.48.09.09,0,0,1,.08.06l1.08.63.16.09a10.79,10.79,0,0,0,1.13.56s.09,0,.12.06c.39.19.81.37,1.22.54a1.86,1.86,0,0,0,1.08.21,1.44,1.44,0,0,0,.51-.09,2.43,2.43,0,0,0,.72-.36l.15-.09a.86.86,0,0,0,.18-.14,7.14,7.14,0,0,0,1-1.08,3.55,3.55,0,0,0,.45-.75,5.83,5.83,0,0,0,.06-.72"/></svg>