<svg xmlns="http://www.w3.org/2000/svg" viewBox="0 0 548.18 312.85"><defs><style>.a{fill:#d6c3b4;}</style></defs><title>vk-social-network-logo</title><path class="a" d="M545.3,282.64c-.7-1.4-1.3-2.6-1.9-3.6-9.5-17.1-27.7-38.2-54.5-63.1l-.6-.6-.3-.3-.3-.3h-.3q-18.3-17.4-23.1-23.4c-5.9-7.6-7.2-15.3-4-23.1q3.45-8.85,25.7-37.4,11.7-15.15,18.6-24.3,49.35-65.7,42.8-83.9l-1.7-2.8c-1.1-1.7-4.1-3.3-8.8-4.7s-10.9-1.7-18.3-.7l-82.2.6c-1.3-.5-3.2-.4-5.7.1L427,16l-1.4.7-1.1.9a12.23,12.23,0,0,0-3.1,3,18.54,18.54,0,0,0-2.8,5A464.52,464.52,0,0,1,388,89.84c-7,11.8-13.5,22-19.4,30.7s-10.8,15-14.8,19.1a89.46,89.46,0,0,1-10.9,9.8c-3.2,2.5-5.7,3.5-7.4,3.1s-3.3-.8-4.9-1.1a18.07,18.07,0,0,1-6.4-7,33,33,0,0,1-3.3-11.1,113.72,113.72,0,0,1-1-11.6c-.1-3.2,0-7.8.1-13.7s.3-9.9.3-12c0-7.2.1-15.1.4-23.6s.5-15.2.7-20.1.3-10.2.3-15.7a63.9,63.9,0,0,0-1-13,48.51,48.51,0,0,0-3-9.1,15.87,15.87,0,0,0-5.9-6.9,35.57,35.57,0,0,0-9.6-3.9C292.1,1.44,279.3.24,263.7,0q-53.1-.6-68.2,6.9a36.62,36.62,0,0,0-10.8,8.6c-3.4,4.2-3.9,6.5-1.4,6.9q17.1,2.55,24.3,12.3l1.7,3.4c1.3,2.5,2.7,6.9,4,13.1A138.88,138.88,0,0,1,215.9,72a234.69,234.69,0,0,1,0,35.7q-1.5,14.85-2.7,23.1c-.9,5.5-2.1,10-3.9,13.4s-2.9,5.5-3.4,6.3a4.47,4.47,0,0,1-1.4,1.4,22.33,22.33,0,0,1-7.7,1.4c-2.7,0-5.9-1.3-9.7-4a65.32,65.32,0,0,1-11.8-11,153,153,0,0,1-13.9-19.6c-5.1-8.4-10.5-18.3-16-29.7l-4.6-8.3c-2.9-5.3-6.8-13.1-11.7-23.3s-9.3-20-13.1-29.6a18.37,18.37,0,0,0-6.9-9.1l-1.4-.9a15.89,15.89,0,0,0-4.6-2.4,29.44,29.44,0,0,0-6.6-1.9l-78.2.6c-8,0-13.4,1.8-16.3,5.4L.9,21.24a9.09,9.09,0,0,0-.9,4.6,23.45,23.45,0,0,0,1.7,7.7q17.1,40.2,37.3,77.7c13.5,25,25.1,45,35,60.2s20,29.6,30.3,43.1,17.1,22.2,20.4,26,6,6.7,7.9,8.6l7.1,6.9c4.6,4.6,11.3,10,20.1,16.4s18.7,12.7,29.4,18.9a160.41,160.41,0,0,0,37.5,15.1,128.93,128.93,0,0,0,41.7,4.7h32.8c6.7-.6,11.7-2.7,15.1-6.3l1.1-1.4a16.06,16.06,0,0,0,2.1-5.3,28,28,0,0,0,1-7.9,89.27,89.27,0,0,1,1.9-22.1c1.4-6.6,3-11.5,4.9-14.8a39.53,39.53,0,0,1,6.1-8.4c2.3-2.3,3.9-3.7,4.9-4.1a13.33,13.33,0,0,1,2.3-1c4.6-1.5,9.9,0,16.1,4.4a93.37,93.37,0,0,1,17.4,16.6c5.4,6.6,11.9,13.9,19.6,22.1s14.3,14.3,20,18.3l5.7,3.4a68.68,68.68,0,0,0,14.9,6.3c6.1,1.9,11.4,2.4,16,1.4l73.1-1.1c7.2,0,12.9-1.2,16.8-3.6s6.4-5,7.1-7.9a21,21,0,0,0,.1-9.7A53.77,53.77,0,0,0,545.3,282.64Z"/></svg>