<svg xmlns="http://www.w3.org/2000/svg" viewBox="0 0 41 41"><defs><style>.a{fill:none;stroke:#d1d2d5;stroke-miterlimit:10;fill-rule:evenodd;}.b{fill:#d1d2d5;}</style></defs><title>VK_1</title><path class="a" d="M20.5.5a20,20,0,1,1-20,20A20,20,0,0,1,20.5.5Z"/><path class="b" d="M29.65,25.54a.54.54,0,0,0-.07-.13,10.24,10.24,0,0,0-1.95-2.26h0a8.13,8.13,0,0,1-.82-.84.77.77,0,0,1-.14-.83,7,7,0,0,1,.92-1.33l.66-.87q1.76-2.34,1.56-3l-.06-.11a.71.71,0,0,0-.32-.17,1.78,1.78,0,0,0-.65,0H25.84a.38.38,0,0,0-.21,0h-.22l-.12.11a1.62,1.62,0,0,0-.1.18,16.65,16.65,0,0,1-1.09,2.3c-.25.42-.48.78-.69,1.1a7,7,0,0,1-.53.69l-.39.35a.4.4,0,0,1-.27.11l-.17,0a.61.61,0,0,1-.23-.25,1.42,1.42,0,0,1-.12-.4,1.27,1.27,0,0,0,0-.41,2,2,0,0,1,0-.49V16.69a2.32,2.32,0,0,0,0-.46,1.39,1.39,0,0,0-.1-.33.72.72,0,0,0-.21-.25,1.58,1.58,0,0,0-.36-.09,6.39,6.39,0,0,0-1.38-.13,6.73,6.73,0,0,0-2.44.28,1.48,1.48,0,0,0-.39.31c-.13.15-.14.23,0,.25a1.28,1.28,0,0,1,.87.43l.06.13a2,2,0,0,1,.14.47,4.9,4.9,0,0,1,.09.78,6.74,6.74,0,0,1,0,1.27c0,.36-.07.63-.1.83a2,2,0,0,1-.13.48,1.55,1.55,0,0,1-.12.22.34.34,0,0,1-.06.06.62.62,0,0,1-.62-.1,2,2,0,0,1-.42-.39,4.25,4.25,0,0,1-.5-.7,10.25,10.25,0,0,1-.57-1.07l-.17-.29q-.15-.29-.42-.84c-.18-.36-.32-.71-.46-1.05a.73.73,0,0,0-.25-.33h0a.8.8,0,0,0-.16-.08,1.09,1.09,0,0,0-.24-.07h-2.8a.69.69,0,0,0-.58.19l0,.07a.22.22,0,0,0,0,.16.88.88,0,0,0,.06.27c.41,1,.85,1.89,1.33,2.78s.9,1.61,1.25,2.16.72,1.06,1.09,1.56.61.78.73.92a4.12,4.12,0,0,0,.28.31l.26.25a5.62,5.62,0,0,0,.71.58c.32.23.67.45,1.06.68a5.45,5.45,0,0,0,1.35.54,4.65,4.65,0,0,0,1.49.17H21a.79.79,0,0,0,.54-.22l0-.06a1.08,1.08,0,0,0,.08-.19,1.27,1.27,0,0,0,0-.28,4.11,4.11,0,0,1,.07-.78,2.25,2.25,0,0,1,.17-.54,1.48,1.48,0,0,1,.22-.29.65.65,0,0,1,.18-.15l.07,0a.65.65,0,0,1,.58.17,2.49,2.49,0,0,1,.62.59c.2.23.43.5.71.78a4.39,4.39,0,0,0,.71.65l.21.13a2.47,2.47,0,0,0,.53.22,1.22,1.22,0,0,0,.57.05H28.9a1.28,1.28,0,0,0,.6-.13.46.46,0,0,0,.25-.28.69.69,0,0,0,0-.35A1.12,1.12,0,0,0,29.65,25.54Z"/></svg>