<svg xmlns="http://www.w3.org/2000/svg" viewBox="0 0 40 40"><defs><style>.a{fill:#d6c3b4;fill-rule:evenodd;}.b{fill:#fff;}</style></defs><title>VK_a</title><path class="a" d="M20,0A20,20,0,1,1,0,20,20,20,0,0,1,20,0Z"/><path class="b" d="M29.66,25a.54.54,0,0,0-.07-.13,10.24,10.24,0,0,0-1.95-2.26h0a9.31,9.31,0,0,1-.82-.84.77.77,0,0,1-.14-.83,7.51,7.51,0,0,1,.92-1.33l.66-.87q1.77-2.34,1.56-3l-.05-.11a.76.76,0,0,0-.32-.17,1.83,1.83,0,0,0-.66,0H25.85a.37.37,0,0,0-.21,0h-.22a.57.57,0,0,0-.11.11,1.74,1.74,0,0,0-.11.18,16.65,16.65,0,0,1-1.09,2.3c-.25.42-.48.78-.69,1.1a7,7,0,0,1-.53.69l-.39.35a.38.38,0,0,1-.27.11l-.17,0a.61.61,0,0,1-.23-.25,1.42,1.42,0,0,1-.12-.4,1.27,1.27,0,0,0,0-.41,2,2,0,0,1,0-.49V16.19a2.32,2.32,0,0,0,0-.46,1.39,1.39,0,0,0-.1-.33.72.72,0,0,0-.21-.25,1.36,1.36,0,0,0-.36-.09,6.33,6.33,0,0,0-1.38-.13,6.73,6.73,0,0,0-2.44.28,1.66,1.66,0,0,0-.39.31c-.12.15-.14.23-.05.25a1.26,1.26,0,0,1,.87.43l.06.13a1.59,1.59,0,0,1,.14.47,4.89,4.89,0,0,1,.1.78,9,9,0,0,1,0,1.27c0,.36-.07.63-.1.83a2,2,0,0,1-.14.48.94.94,0,0,1-.12.22.17.17,0,0,1-.06.06.61.61,0,0,1-.27,0,.64.64,0,0,1-.35-.14,2,2,0,0,1-.42-.39,4.94,4.94,0,0,1-.5-.7c-.18-.3-.37-.65-.57-1.07l-.16-.29q-.15-.29-.42-.84c-.18-.36-.33-.71-.47-1.05a.78.78,0,0,0-.24-.33H14a.8.8,0,0,0-.16-.08,1.09,1.09,0,0,0-.24-.07h-2.8a.69.69,0,0,0-.58.19l0,.07a.43.43,0,0,0,0,.16,1.31,1.31,0,0,0,.06.27c.41,1,.85,1.89,1.34,2.78s.89,1.61,1.24,2.16.72,1.06,1.09,1.56.61.78.73.92a4.12,4.12,0,0,0,.28.31l.26.25a5.08,5.08,0,0,0,.72.58,12,12,0,0,0,1.05.68,5.45,5.45,0,0,0,1.35.54,4.65,4.65,0,0,0,1.49.17H21a.77.77,0,0,0,.54-.22l0-.06a.64.64,0,0,0,.08-.19,1.26,1.26,0,0,0,0-.28,3.42,3.42,0,0,1,.06-.78,2.25,2.25,0,0,1,.17-.54,1.54,1.54,0,0,1,.23-.29.61.61,0,0,1,.17-.15l.08,0a.64.64,0,0,1,.57.17,2.71,2.71,0,0,1,.63.59c.19.23.43.5.7.78a4.07,4.07,0,0,0,.72.65l.2.13a2.47,2.47,0,0,0,.53.22,1.25,1.25,0,0,0,.58.05h2.61a1.25,1.25,0,0,0,.6-.13.51.51,0,0,0,.26-.28,1,1,0,0,0,0-.35A1.4,1.4,0,0,0,29.66,25Z"/></svg>