<svg xmlns="http://www.w3.org/2000/svg" viewBox="0 0 40 40"><defs><style>.a{fill:#d6c3b4;fill-rule:evenodd;}.b{fill:#fff;}</style></defs><title>WhatsApp_a</title><path class="a" d="M20,0A20,20,0,1,1,0,20,20,20,0,0,1,20,0Z"/><path class="b" d="M31.32,19.31a10.85,10.85,0,0,1-16.06,9.38l-6,1.89,1.94-5.72a10.65,10.65,0,0,1-1.56-5.55,10.82,10.82,0,0,1,21.64,0Zm-10.82-9a9.07,9.07,0,0,0-9.1,9,8.91,8.91,0,0,0,1.7,5.3L12,28l3.53-1.11a9,9,0,1,0,5-16.56ZM26,21.79c-.07-.11-.25-.18-.52-.31s-1.56-.77-1.81-.85-.42-.13-.6.12-.68.86-.85,1-.31.2-.57.06a7.17,7.17,0,0,1-2.13-1.3,8.43,8.43,0,0,1-1.44-1.82c-.15-.27,0-.41.12-.54s.26-.31.4-.46a1.5,1.5,0,0,0,.26-.44.47.47,0,0,0,0-.46c-.06-.13-.59-1.43-.85-1.95s-.44-.45-.59-.45h-.51a1,1,0,0,0-.71.33,3,3,0,0,0-1,2.18,5.07,5.07,0,0,0,1.13,2.72,10.75,10.75,0,0,0,4.53,4c2.69,1.06,2.69.7,3.18.66A2.66,2.66,0,0,0,25.85,23,2.42,2.42,0,0,0,26,21.79Z"/></svg>