<svg xmlns="http://www.w3.org/2000/svg" viewBox="0 0 41 41"><defs><style>.a{fill:none;stroke:#d1d2d5;stroke-miterlimit:10;fill-rule:evenodd;}.b{fill:#d1d2d5;}</style></defs><title>WhatsApp_1</title><path class="a" d="M20.5.5a20,20,0,1,1-20,20A20,20,0,0,1,20.5.5Z"/><path class="b" d="M31.5,19.81a10.85,10.85,0,0,1-16,9.38l-6,1.89,1.93-5.72a10.64,10.64,0,0,1-1.55-5.55,10.82,10.82,0,0,1,21.64,0Zm-10.82-9a9.08,9.08,0,0,0-9.1,9,9,9,0,0,0,1.71,5.3l-1.14,3.35,3.53-1.11a9,9,0,1,0,5-16.56Zm5.47,11.5c-.07-.11-.24-.18-.51-.31s-1.57-.77-1.81-.85-.42-.13-.6.12-.68.86-.85,1-.31.2-.57.06a7.17,7.17,0,0,1-2.13-1.3,8.14,8.14,0,0,1-1.44-1.82c-.16-.27,0-.41.12-.54s.26-.31.4-.46a1.5,1.5,0,0,0,.26-.44.47.47,0,0,0,0-.46c-.07-.13-.59-1.43-.85-1.95s-.44-.45-.6-.45h-.5a1,1,0,0,0-.71.33,3,3,0,0,0-.95,2.18,5.13,5.13,0,0,0,1.12,2.72,10.84,10.84,0,0,0,4.54,4c2.69,1.06,2.69.7,3.17.66A2.66,2.66,0,0,0,26,23.54,2.23,2.23,0,0,0,26.15,22.29Z"/></svg>