<?xml version="1.0" encoding="UTF-8"?>
<!DOCTYPE svg PUBLIC "-//W3C//DTD SVG 1.1//EN" "http://www.w3.org/Graphics/SVG/1.1/DTD/svg11.dtd">
<!-- Creator: CorelDRAW X7 -->
<?xml-stylesheet href="logo1.css" type="text/css"?>
<svg xmlns:xlink="http://www.w3.org/1999/xlink" xmlns="http://www.w3.org/2000/svg" xml:space="preserve" width="1200px" height="900px" version="1.1"
style="shape-rendering:geometricPrecision; text-rendering:geometricPrecision; image-rendering:optimizeQuality; fill-rule:evenodd; clip-rule:evenodd"
 viewBox="0 0 1200 900">
 <g id="Слой_x0020_1">
  <metadata id="CorelCorpID_0Corel-Layer"/>
  <path class="fil0" d="M1137 711c19,14 10,47 -6,49 -1,-2 -2,-3 -3,-7 -3,-8 -20,-44 -20,-49 11,0 22,1 29,7l0 0zm18 4c-13,-24 -36,-21 -63,-20 1,2 6,14 8,17l12 30c2,6 8,17 8,22l-28 0 0 32c0,3 -1,4 10,3 1,-3 0,-9 0,-13l0 -10c1,-3 2,-3 6,-3l16 0c0,0 0,0 1,0l11 26 11 0c0,-3 -1,-3 -3,-7 -2,-5 -8,-16 -8,-21 8,-5 17,-11 20,-21 3,-11 5,-24 -1,-35l0 0zm-823 -26l-11 0 0 63 -56 0 0 -62 -10 0 0 104 10 0 0 -31c5,-1 52,-1 57,0l0 31 10 0c1,-6 1,-101 0,-105l0 0zm356 15c23,-1 44,2 44,30 0,27 -21,32 -44,29l0 -59 0 0zm-11 95l11 0 0 -26c19,-1 28,2 42,-8 16,-12 18,-34 10,-51 -2,-4 -9,-11 -13,-13 -1,-1 -3,-2 -4,-2 -12,-6 -34,-6 -46,-4l0 104 0 0zm-617 -24c-2,0 -3,0 -5,2l-4 2c2,5 10,13 15,16 2,1 4,1 5,3 3,1 26,5 37,-5 4,-3 5,-4 7,-8 4,-7 6,-17 1,-24 -5,-9 -10,-14 -19,-18l-16 -7c-7,-3 -13,-9 -13,-18 1,-19 29,-17 35,-3 3,-1 7,-3 9,-4 -1,-11 -28,-25 -46,-10 -7,5 -9,16 -7,26 2,9 10,14 17,18 3,1 2,1 5,3 3,1 4,1 6,3 6,2 17,7 19,15 7,21 -16,26 -25,23 -3,0 -5,-1 -7,-1 -7,-3 -11,-10 -14,-13zm396 23l9 0c1,-2 3,-9 4,-10l16 -40c1,-1 1,-3 2,-5l2 -5c1,-2 1,-3 2,-5 1,-2 2,-3 2,-5 3,-5 2,-7 5,-10l33 80 10 0 -32 -79c-3,-6 -8,-21 -11,-26 -2,3 -14,33 -16,40l-14 32c-2,5 -4,13 -7,19 -1,1 -5,12 -5,14l0 0zm415 0l9 0 10 -25c1,-2 1,-3 2,-5l17 -40c1,-4 2,-7 4,-10 1,1 1,0 2,2l7 18c6,15 15,35 20,50 2,3 4,6 4,10l10 0c-1,-5 -25,-60 -29,-72l-13 -32c-1,1 0,0 -2,1l-17 43c-1,3 -2,4 -3,7l-21 53 0 0zm-539 -109c1,4 1,99 0,105l-10 0 0 -31c-5,-1 -52,-1 -57,0l0 31 -10 0 0 -104 10 0c-1,-2 2,-2 -6,-2 -2,1 -3,0 -5,1 -1,3 -1,100 0,106 3,1 8,1 12,-1l0 -31 55 0 0 31c3,2 8,2 12,1 1,-7 0,-81 0,-100 0,-8 0,-5 -1,-6l0 0z"/>
  <path class="fil0" d="M600 481c16,4 9,1 21,0 1,2 1,5 2,7 2,5 5,4 8,9 -2,6 -4,3 -9,7 0,1 -6,10 -7,13 -7,-1 -12,0 -15,-7 -8,-16 -6,-2 -12,-13 3,-4 0,0 4,-3 4,-4 5,-6 5,-8 0,0 0,0 0,0 1,-1 1,-2 1,-3 1,-1 1,-2 2,-2l0 0zm0 -237c16,-5 9,-1 21,0 1,-3 1,-5 2,-8 2,-4 5,-3 8,-8 -2,-7 -4,-4 -9,-8 0,0 -6,-10 -7,-12 -7,0 -12,0 -15,7 -8,15 -6,1 -12,12 3,5 0,1 4,4 4,3 5,5 5,7 0,0 0,1 0,1 1,1 1,2 1,3 1,1 1,1 2,2l0 0zm-112 -73c2,0 4,0 7,0 4,-2 8,-3 12,-5 0,0 0,0 0,0 2,-6 -2,-10 8,-15 1,-1 1,-2 2,-2 5,-5 10,-3 19,-4 4,2 8,4 12,6 3,-1 5,-1 6,-2 1,-2 2,-3 3,-5 0,-1 1,-2 2,-4 1,-1 1,-1 2,-2 0,0 1,-1 2,-2 2,-2 4,-4 7,-7 1,-1 5,0 7,0 1,1 3,2 4,2 2,0 5,0 7,0 2,-1 18,-31 42,0 15,1 23,-14 31,11 1,1 2,4 3,6 1,1 1,1 1,1 1,0 3,1 5,1 2,-1 6,-2 7,-2 16,-5 15,-5 27,0 8,4 6,4 7,13 2,9 7,11 16,9 14,-3 20,0 31,12 12,1 16,-2 24,6 7,7 6,13 7,24 4,5 9,10 12,16 5,11 0,14 -1,23 8,16 8,5 20,13 8,7 8,14 5,25 -1,1 -2,2 -2,3 -1,1 -2,3 -2,4 0,3 1,7 1,10 17,10 19,11 19,34 2,3 15,11 14,22 1,12 -12,19 -14,22 0,23 -2,25 -19,34 0,4 -1,7 -1,10 0,2 1,3 2,5 0,0 1,1 2,2 3,11 3,19 -5,25 -12,9 -12,-2 -20,14 1,9 6,12 1,23 -3,6 -8,11 -12,15 -1,12 0,18 -7,25 -8,7 -12,4 -24,6 -12,13 -18,15 -37,10 -3,1 -6,3 -9,5 -3,22 -12,26 -35,19 -1,-1 -5,-2 -7,-3 -2,1 -4,1 -5,2 0,0 0,0 -1,0 -1,3 -2,5 -3,7 -8,25 -16,10 -31,11 -18,23 -31,12 -38,4 -8,-9 -10,-3 -18,-2 -2,0 -3,0 -4,-1 -4,-3 -11,-10 -13,-15 -1,-1 -2,-3 -3,-4 -1,-1 -3,-2 -6,-2 -8,4 -23,10 -31,2 -17,-13 -11,-20 -22,-22 -3,0 -5,0 -7,0 -3,0 -6,0 -8,0 -1,0 -2,0 -3,0 -4,-1 -2,-1 -6,-2 -13,6 -10,6 -12,-10 -11,-2 -13,2 -22,-6 -4,-4 -6,-7 -6,-11 -1,-3 0,-7 -1,-13 -9,-8 -12,-15 -13,-20 -2,-8 1,-12 2,-20 -1,-2 -3,-4 -4,-6 0,-1 0,-1 0,-1 -9,-2 -17,-4 -20,-11 -6,-9 -3,-20 4,-27 -1,-2 -1,-5 -2,-7 -1,-1 -2,-2 -5,-3 -7,-4 -11,-7 -13,-17 -2,-5 -1,-9 -1,-16 -8,-7 -14,-14 -13,-22 -1,-7 5,-14 13,-22 0,-6 -1,-11 1,-16 2,-9 6,-12 13,-16 3,-1 4,-2 5,-3 1,-2 1,-5 2,-7 -7,-8 -10,-19 -4,-27 3,-8 11,-10 20,-11 0,-1 0,-1 0,-1 1,-2 3,-4 4,-6 -1,-8 -4,-13 -2,-20 1,-6 4,-12 13,-20 1,-6 0,-10 1,-14 0,-3 2,-6 6,-10 9,-9 11,-5 22,-7 1,-4 -2,-11 2,-14 3,-3 6,3 10,5 6,-2 10,-3 17,-2l0 0zm85 -31c-1,0 -1,0 -2,0 -3,2 -6,5 -8,10 1,2 2,3 3,4 0,0 0,0 1,0 0,0 1,1 1,1 5,1 4,3 8,8 4,-1 9,-1 14,-2 1,-1 3,-1 3,-1 0,0 0,0 0,-1 0,0 -1,0 1,-1 1,-1 1,-2 2,-3 1,-2 3,-3 5,-5 0,0 1,-1 1,-1 3,-1 5,-2 9,-2 2,0 9,11 16,15 7,4 15,0 17,1 8,-15 7,-7 12,-11 0,0 0,-1 0,-2 0,-3 -2,-6 -5,-8 0,0 -2,-1 -3,-2 -6,-2 -14,-1 -23,-1 -10,-18 -21,-19 -30,0 -9,1 -17,-1 -22,1l0 0zm-135 63c0,2 1,4 1,7 0,2 1,3 1,6 -3,7 -17,9 -16,22 0,0 1,1 1,2 1,3 2,7 5,11 -2,7 -2,4 -5,8 -3,3 -3,6 -5,9 -23,2 -21,14 -17,21 1,1 3,3 4,5 0,0 0,1 0,1 1,1 1,1 1,1 -1,7 -3,12 -2,16 2,3 7,6 13,7 7,-3 7,-4 15,-6 1,-16 2,-21 7,-27 1,-3 2,-4 5,-7 4,-3 3,-1 5,-4 -5,-15 -10,-17 -5,-27 2,-6 6,-9 10,-13 -4,-12 -2,-13 0,-24 1,-1 2,-1 3,-1 5,-5 15,-3 24,-2 15,-14 17,-14 38,-4 1,0 2,-1 3,-1 4,-4 5,-7 8,-9 4,-4 9,-7 29,-7 0,-2 1,-4 2,-7 1,-1 1,-2 2,-4 1,-1 1,-1 1,-2 0,0 0,0 0,0 0,-2 0,-4 0,-6 0,0 0,-1 0,-1 -8,-3 -9,0 -9,-8 -4,0 -9,2 -15,3 -4,-4 -8,-11 -11,-7 -7,9 -10,-7 -15,18 -2,6 -12,7 -17,10 -8,-3 -12,-9 -22,-3 -6,3 -10,10 -15,13 -9,-1 -14,-4 -20,3 -2,3 -3,5 -4,7l0 0zm150 182c-1,14 -1,13 -17,14 1,-3 2,-10 3,-11 4,-3 9,-3 14,-3 0,0 0,0 0,0l0 0zm-126 -157c0,1 1,2 2,4 1,1 2,3 2,6 -4,5 -10,7 -12,12 -2,6 -2,11 1,14 1,2 3,3 5,5 8,-2 8,-6 21,-8 1,0 4,0 5,-1 1,0 2,0 3,-1 2,-1 -1,-4 3,-10 2,-2 6,-5 15,-7 1,-3 2,-13 3,-16 2,-6 5,-7 6,-13 -16,-14 -21,-5 -30,6 -10,0 -13,-10 -23,0 -2,4 -2,7 -1,9l0 0zm115 57c12,-1 18,4 22,9 1,1 2,1 2,2 1,2 2,4 3,5 4,0 8,0 12,0 3,-8 7,-11 15,-15 11,-5 15,2 18,8 6,-1 11,-4 12,-8 0,-1 0,-2 0,-3 -3,-3 -5,-4 -10,-7 1,-2 1,-4 1,-7 0,-1 0,-1 0,-2 -4,-1 -3,-5 -9,4 -10,1 -12,-2 -15,-9 -15,-3 -14,-23 -26,-7 -5,7 -3,3 -8,7 -8,5 -3,10 -17,10 -4,-5 -2,-6 -9,-6 0,4 0,7 0,11 -7,3 -9,7 -9,10 2,3 5,6 10,7 2,-1 3,-3 4,-5 2,-2 3,-3 4,-4l0 0zm-50 19c4,0 9,0 13,1 8,-9 1,-6 12,-11 0,-1 1,-1 1,-1 0,-4 -1,-9 -2,-13 -6,1 -3,2 -8,2 -9,1 -4,-4 -15,2 -1,8 1,6 1,11 0,3 -2,5 -2,9zm140 -11c9,5 6,0 11,12 5,0 10,-1 15,-1 0,0 0,-1 0,-1 -1,-5 -2,-3 -2,-8 0,-1 0,-2 0,-4 0,-1 1,-2 1,-3 0,-11 -11,-6 -14,-6 -4,0 -6,-2 -10,-2 -1,4 -1,8 -1,13l0 0zm-93 44c4,3 9,3 14,3 0,0 0,-1 0,-1 -1,-14 -1,-12 -17,-14 1,4 2,10 3,12l0 0zm62 -76c13,-3 17,-9 22,2 1,2 2,4 3,7 15,6 32,-3 37,11 0,0 1,1 1,2 1,2 0,7 0,13 0,4 1,9 2,14 5,3 11,1 13,9 0,0 0,0 0,1 1,1 1,2 1,3 0,2 -1,4 -2,5 -1,2 -2,4 -2,7 4,6 11,10 22,8 2,-3 3,-5 3,-7 0,-2 0,-4 0,-7 0,-1 0,-2 0,-3 0,-3 5,-8 6,-13 0,-1 0,-3 0,-6 -14,-11 -16,1 -24,-17 0,-1 0,-1 0,-2 0,0 0,0 0,0 2,-5 3,-7 3,-9 0,-1 0,-2 0,-3 0,-1 0,-2 0,-3 -1,0 -1,-2 -1,-5 0,-2 2,-6 3,-9 -1,-12 -14,-8 -21,-6 -13,-5 -9,-1 -19,2 -6,-2 -9,-3 -11,-8 0,0 0,0 0,0 0,0 0,-1 0,-1 0,-2 -1,-3 -1,-5 0,0 0,-1 0,-1 -2,-3 -4,-6 -5,-9 -10,-1 -15,3 -20,6 -5,0 -10,0 -15,0 -2,4 -3,6 -3,9 1,3 3,8 8,15l0 0zm-41 73c0,7 10,16 14,19 5,-2 8,-6 11,-10 1,-1 2,-2 2,-3 2,-2 2,-5 2,-8 -3,0 -6,-1 -9,-1 0,-5 0,-6 2,-12 -1,-1 -1,-2 -3,-4 -1,-1 -1,-2 -2,-2 -1,-2 -1,-2 -3,-3 -3,4 -4,6 -7,10 0,0 0,1 0,1 1,1 2,2 3,7 0,0 0,1 0,2 -3,1 -9,1 -10,4l0 0zm38 -5c-1,3 -1,5 -2,8 0,1 0,2 0,2 5,0 12,1 15,-2 0,-2 1,-9 2,-12 -9,1 -13,1 -15,4l0 0zm-11 -17c0,3 2,6 5,9 8,-1 13,-6 24,-4 3,1 4,4 4,8 1,7 -4,13 -4,21 5,2 13,5 20,2 5,-3 8,-10 9,-15 -6,-3 -10,-1 -16,-6 0,-2 1,-3 1,-5 2,-5 5,-9 5,-16 -1,-9 -13,2 -24,2 -5,-6 -4,-10 -6,-15 -12,1 -19,10 -18,19l0 0zm-81 21c0,8 5,24 27,12 0,-4 -3,-11 -3,-17 -1,-1 -1,-2 0,-4 0,-1 0,-2 0,-3 1,-1 1,-3 3,-4 11,-2 16,3 25,4 2,-3 3,-6 4,-9 0,0 0,0 0,0 0,0 0,0 0,0 1,-3 1,-6 -1,-9 -2,-5 -10,-9 -16,-10 -4,7 1,5 -5,11 0,0 0,1 0,1 0,1 0,2 0,3 -12,2 -29,-16 -24,5 1,3 3,7 4,11 0,0 0,0 0,0 0,1 1,2 1,4 -3,0 -5,0 -7,1 -4,5 2,1 -8,4l0 0zm77 29c4,5 21,23 23,11 -3,-13 11,4 21,-11 -7,-10 -16,-4 -21,-4 0,-1 1,-2 1,-3 -1,0 -1,-1 -1,-1 0,-1 0,-1 0,-2 -2,-13 -19,6 -23,10l0 0zm-40 5c1,7 -1,5 2,9 9,0 18,-9 21,-14 -3,-5 -12,-14 -21,-13 -3,4 -1,2 -2,9 -12,1 -4,-8 -17,1 -5,4 -2,0 -4,3 2,3 -1,0 4,4 13,8 5,-1 17,1l0 0zm167 17c11,-5 2,-7 10,-11 7,-4 8,-1 10,-11 -2,-9 -3,-6 -10,-10 -8,-4 1,-6 -10,-11 -6,3 -2,3 -7,7 -4,3 -6,2 -10,4 0,1 0,1 0,1 1,6 2,8 2,9 0,2 -1,4 -2,10 0,0 0,0 0,1 4,1 6,0 10,4 5,4 1,4 7,7l0 0zm76 25c12,0 13,-11 13,-23 0,-19 12,-9 14,-24 -1,-7 -9,-12 -13,-14 0,-1 0,-2 0,-3 0,0 0,0 0,0 -1,-2 -1,-4 -1,-6 0,-12 -1,-23 -13,-23 -5,5 -7,8 -14,10 0,6 1,12 1,17 8,4 16,8 16,19 0,11 -8,16 -16,19 0,6 -1,12 -1,17 7,3 9,5 14,11zm-190 -24c0,1 0,2 0,3 1,2 1,5 2,8 2,3 6,2 15,4 -1,-4 -2,-11 -2,-12 -3,-4 -10,-3 -15,-3l0 0zm55 -56c0,1 1,2 1,3 1,2 0,5 -1,9 -5,8 -8,12 -16,16 0,2 0,4 0,5 0,0 0,0 0,0 0,2 0,4 0,6 8,3 11,7 16,16 4,8 0,13 -6,18 -1,0 -2,1 -3,1 1,3 3,5 4,6 3,3 5,4 9,3 3,-1 1,-2 5,-5 3,-4 3,-3 6,-3 7,1 8,-3 3,-6 -4,-3 -2,-8 -1,-12 1,-6 3,-1 8,-8 3,-4 1,-4 5,-8 1,-1 4,-2 6,-4 0,-1 1,-3 1,-4 0,-1 -1,-2 -1,-4 -2,-2 -5,-2 -6,-4 -4,-3 -2,-4 -5,-8 -6,-8 -8,2 -9,-15 0,0 0,0 0,0 0,-1 0,-2 -1,-3 4,-1 5,-3 6,-4 0,-1 0,-2 -1,-3 -9,-2 -6,2 -11,-3 -4,-4 0,-5 -9,-6 -4,2 -7,5 -9,9 2,2 4,2 5,4 3,2 2,-1 4,4l0 0zm-62 63c0,-2 0,-5 -2,-8 0,-1 -1,-1 -2,-3 -3,-3 -6,-8 -11,-10 -4,3 -14,12 -14,20 1,3 7,2 10,4 0,1 0,1 0,2 -1,4 -2,6 -3,6 0,1 0,1 0,1 3,5 4,7 7,10 2,-1 2,0 3,-2 1,-1 1,-1 2,-3 2,-1 2,-3 3,-4 -1,-3 -2,-6 -3,-9 0,0 1,0 1,0 0,-1 0,-2 0,-3 3,0 6,0 9,-1l0 0zm-2 21c-1,9 6,18 18,19 2,-6 1,-9 6,-16 11,1 23,12 24,2 0,-6 -3,-10 -5,-16 0,-1 -1,-3 -1,-4 6,-5 10,-3 16,-6 -1,-5 -4,-13 -9,-15 -7,-4 -15,-1 -20,2 0,8 5,13 4,20 0,4 -1,8 -4,9 -11,1 -16,-3 -24,-5 -3,4 -5,7 -5,10l0 0zm149 -47c0,1 0,2 0,3 0,0 0,0 0,0 0,0 0,0 0,0 0,0 0,0 0,0 -2,6 -6,8 -11,11 -9,6 -1,7 -17,13 0,0 0,0 0,0 2,10 7,15 6,26 0,0 0,0 0,0 0,1 -1,1 -1,2 -8,9 -13,8 -21,13 -1,0 -1,1 -1,1 0,1 0,2 1,3 0,2 1,4 1,10 1,22 30,-3 30,-3 10,-5 14,-5 18,-16 5,-15 -3,-18 -3,-27 9,-1 13,6 23,-4 4,-4 5,-7 5,-11 -1,-12 -4,-10 6,-15 6,-3 9,-6 10,-10 -1,-3 -4,-6 -10,-9 -10,-5 -7,-3 -6,-16 0,-3 -1,-7 -5,-10 -10,-10 -14,-3 -23,-4 0,-9 8,-12 3,-27 -4,-11 -8,-11 -18,-16 0,0 -29,-25 -30,-3 0,6 -1,8 -1,10 -1,1 -1,1 -1,2 0,1 0,1 1,2 8,5 13,3 21,12 0,1 1,2 1,2 0,0 0,1 0,1 1,11 -4,16 -6,25 0,0 0,0 0,0 16,7 8,8 17,14 5,3 9,5 11,11 0,0 0,0 0,0 0,0 0,0 0,0 0,0 0,0 0,0 0,1 0,2 0,3 0,0 0,0 0,0 0,0 0,0 0,0 1,2 1,4 0,7 0,0 0,0 0,0 0,0 0,0 0,0l0 0zm-103 79c4,-1 6,-2 10,-2 3,0 14,5 14,-7 0,-1 -1,-2 -1,-3 0,-1 0,-3 0,-3 0,-5 1,-4 2,-9 0,0 0,0 0,-1 -5,0 -10,0 -15,0 -5,12 -2,6 -11,12 0,4 0,9 1,13l0 0zm93 36c2,-2 4,-4 5,-6 1,-9 0,-14 -6,-19 -10,1 -10,8 -28,8 -3,5 -4,10 -7,14 -4,5 -9,4 -14,6 0,0 0,1 0,1 0,22 -7,20 -8,27 13,15 24,3 30,-3 0,-1 0,-1 1,-2 0,0 0,0 0,0 1,0 1,-1 2,-1 9,3 11,8 21,1 0,0 0,-1 0,-1 2,-9 0,-9 -1,-13 -4,-8 0,-8 5,-12l0 0zm-5 52c0,0 0,0 0,0 0,0 0,0 0,0 1,-1 1,-1 2,-2 15,5 20,1 23,-5 1,-4 0,-10 -1,-15 0,0 0,-1 0,-1 0,-1 0,-2 0,-2 5,-3 9,-6 11,-9 1,-1 1,-2 2,-3 5,-8 2,-13 -1,-17 -2,-5 -3,-6 0,-10 1,-1 3,-1 4,-4 2,-3 3,-6 5,-8 12,-1 11,-2 17,-8 3,-10 -1,-11 -6,-18 0,-1 0,-2 0,-3 0,0 0,0 0,0 1,-5 3,-8 3,-14 -1,-2 -3,-4 -7,-6 -6,-5 -16,0 -22,4 -2,11 0,14 -5,24 -5,10 -10,9 -13,15 2,5 4,8 5,13 2,7 2,11 -1,14 -1,0 -1,1 -1,2 0,4 -4,6 -7,10 1,11 3,18 -3,26 -11,2 -13,2 -24,1 -5,4 -8,9 -17,10 -12,1 -13,-3 -20,-6 -6,0 -5,4 -9,8 -4,3 -5,2 -8,6 -4,3 -7,4 -13,3 -1,0 -2,-1 -4,-1 -2,0 -4,0 -7,0 0,1 0,1 -1,2 -2,5 -4,10 -6,15 3,11 9,13 17,11 7,-1 5,-3 11,1 5,4 13,8 19,2 5,-9 2,-15 12,-19 27,-12 16,9 45,-16l0 0zm-107 9c1,-3 1,-5 1,-8 -3,-16 7,-1 24,-5 6,-2 11,-5 15,-11 0,-1 2,-4 3,-6 1,-1 1,-1 1,-2 1,-1 1,-2 2,-2 4,-5 7,-12 9,-18 0,-2 -1,-4 -2,-6 -3,-4 -6,-1 -11,-2 -6,-1 -3,-3 -11,-1 -15,35 -13,19 -39,16 -1,1 -1,1 -2,3 -1,1 -1,1 -1,1 -7,12 -7,6 -12,12 0,1 0,2 -1,3 0,0 0,1 -1,1 -3,5 -6,9 -15,8 -8,0 -11,-3 -13,-7 0,-1 -1,-1 -1,-2 -2,-2 -3,-4 -4,-5 -2,-3 -5,-2 -7,-6 -2,-2 -4,-8 -5,-9 -20,5 -30,0 -40,-16 -7,0 -7,1 -12,2 -4,1 -6,0 -10,0 -2,9 1,16 5,21 11,13 4,8 9,16 20,29 30,-17 38,21 9,0 7,-3 8,10 2,2 5,3 7,3 18,-1 8,-5 17,8 8,12 15,0 21,-7 8,-10 16,9 27,-12l0 0zm22 -59c0,-1 1,-3 1,-4 0,-1 0,-1 0,-1 0,0 0,0 0,0 2,-5 5,-6 11,-9 10,4 6,8 19,2 7,2 20,7 21,-5 -1,-4 -3,-7 -3,-10 0,-3 0,-4 1,-5 0,0 0,-1 0,-2 0,-1 0,-2 0,-3 0,-2 -1,-5 -3,-9 0,0 0,0 0,-1 0,0 0,-1 0,-1 8,-18 10,-6 24,-18 0,-2 0,-4 0,-6 -1,-4 -6,-9 -6,-12 0,-1 0,-2 0,-3 0,-4 0,-6 0,-7 0,-2 -1,-4 -3,-7 -11,-2 -18,1 -22,8 0,3 1,5 2,7 1,1 2,2 2,4 0,2 0,3 -1,4 0,0 0,1 0,1 -2,7 -8,6 -13,9 -1,5 -2,9 -2,14 0,5 1,11 0,13 0,1 -1,1 -1,2 -5,14 -22,4 -37,11 -1,3 -2,5 -3,7 -5,10 -9,5 -22,2 -5,6 -7,11 -8,15 0,2 1,5 3,9 5,0 10,0 15,0 5,3 10,6 20,6 1,-3 3,-6 5,-9 0,-1 0,-1 0,-2l0 0zm-43 -20c3,-8 5,-10 15,-10 6,10 5,6 9,4 0,0 0,-1 0,-2 0,-2 0,-4 -1,-7 5,-2 7,-4 10,-6 0,-1 0,-2 0,-3 -1,-4 -6,-8 -12,-8 -3,6 -7,13 -18,8 -8,-4 -12,-7 -15,-15 -4,0 -8,0 -12,0 -1,1 -2,3 -3,4 0,1 -1,2 -2,3 -4,4 -10,10 -22,9 -1,-1 -2,-2 -4,-4 -1,-2 -2,-4 -4,-6 -5,2 -8,4 -10,8 0,3 2,6 9,10 0,3 0,7 0,10 7,1 5,0 9,-5 14,0 9,5 17,10 5,4 3,0 8,6 12,16 11,-3 26,-6l0 0zm-53 -42c6,5 1,3 5,10 6,0 14,-5 16,-9 2,-3 2,-7 1,-10 0,0 0,0 0,0 0,0 0,0 0,0 -1,-3 -2,-6 -4,-8 -9,1 -14,6 -25,4 -2,-2 -2,-3 -3,-5 0,0 0,-1 0,-3 -1,-1 -1,-2 0,-3 0,-6 3,-14 3,-18 -22,-11 -27,5 -27,13 4,1 6,2 9,3 7,3 6,3 3,11 -1,2 -2,4 -2,6 -5,21 12,2 24,5 0,1 0,1 0,2 0,1 0,1 0,2l0 0zm-41 -38c2,-7 8,-12 14,-15 0,-2 1,-4 1,-6 0,-1 -1,-3 -1,-5 -7,-4 -15,-10 -16,-21 0,0 0,0 0,0 -1,-8 6,-11 10,-15 -2,-5 -4,-7 -10,-9 -5,3 -6,5 -9,9 -3,0 -7,0 -9,0 -1,1 -1,2 -1,2 -1,3 1,4 5,5 0,1 0,2 0,3 0,0 1,0 1,1 -1,1 -1,2 -1,3 -1,1 -1,2 -1,3 -1,1 -1,3 -1,4 -9,2 -6,4 -10,10 -4,6 -5,1 -10,9 0,1 0,1 0,1 0,1 0,1 0,1 5,9 6,4 10,10 3,5 2,6 6,8 5,3 10,14 3,17 -4,2 -3,6 3,6 5,0 4,-1 7,2 2,3 3,4 7,7 4,-2 6,-3 8,-5 2,-4 3,-4 0,-7 -8,-5 -9,-10 -6,-18l0 0zm-27 -45c1,-2 1,-2 1,-3 -2,-5 -4,-10 -3,-14 0,-9 12,-10 14,-11 1,-5 2,-12 2,-16 0,-5 -1,-9 0,-12 3,-11 16,-9 21,-9 5,0 10,-2 17,-2 0,0 0,0 0,0 0,-3 1,-6 2,-8 5,-11 14,-5 21,-2 3,-2 6,-5 8,-8 1,-4 1,-9 0,-15 -8,-1 -7,-1 -16,-1 -6,-2 -22,-19 -27,12 -3,2 -6,4 -10,7 -10,-3 -4,-7 -17,-3 -7,2 -6,-3 -18,-1 -8,8 -3,11 -2,21 0,0 -1,0 -1,0 0,2 0,3 -1,3 0,2 1,4 1,5 1,2 2,3 3,7 0,0 0,0 0,0 0,1 0,1 0,2 -7,19 -15,6 -24,18 0,4 0,6 1,9 1,2 2,6 5,9 0,0 0,0 0,0 0,0 0,0 0,1 0,3 -1,7 0,11 1,4 5,7 16,4 2,-1 5,-3 7,-4l0 0zm-36 -34c5,-9 14,-8 22,-13 -1,-2 -1,-4 -1,-5 -3,-3 -1,-9 -2,-15 -13,-7 -25,7 -27,9 -4,2 -16,3 -21,19 0,2 0,3 0,4 0,1 0,3 0,5 2,7 4,5 4,13 -1,0 -1,0 -2,0 0,1 0,1 0,2 -29,1 -24,7 -24,27 -9,4 -13,2 -16,12 3,10 7,8 16,12 0,19 -4,26 18,28 6,0 10,1 7,9 -1,1 -2,2 -3,6 0,2 0,3 0,5 0,1 0,2 0,3 5,16 17,18 21,20 2,1 14,15 27,8 1,-5 -1,-11 2,-14 0,-1 0,-3 1,-5 -8,-5 -17,-4 -22,-13 0,-1 0,-2 -1,-2 0,-14 6,-18 6,-26 -4,-2 -7,-2 -10,-5 -4,-3 -3,-5 -6,-8 -7,-4 -12,-6 -13,-17 0,0 0,0 0,0 0,0 0,0 0,0 0,0 0,0 0,-1 0,0 0,0 0,0 0,0 0,0 0,0 0,0 0,0 0,0 0,0 0,-1 0,-1 1,-11 6,-12 13,-17 3,-2 2,-4 6,-7 3,-3 6,-4 10,-5 0,-9 -6,-12 -6,-26 1,-1 1,-2 1,-2l0 0zm106 -130c-1,4 -1,7 -1,11 -1,0 -3,-1 -7,0 -1,4 2,8 1,14 -7,2 -27,-10 -39,7 -5,8 2,3 -9,16 -4,4 -7,12 -5,20 4,1 6,0 10,1 5,0 5,2 12,2 4,-8 4,-13 10,-19 1,-1 2,-2 2,-4 14,0 18,5 28,6 1,-1 3,-7 5,-9 2,-4 5,-3 7,-6 1,0 2,-2 4,-5 0,0 1,-1 1,-1 2,-4 5,-8 13,-8 9,0 12,4 15,9 1,0 1,0 1,1 1,1 1,1 1,2 5,7 5,0 12,12 0,1 0,1 1,1 1,3 1,2 2,4 26,-4 24,-19 39,16 8,2 5,0 11,-1 5,-1 8,1 11,-2 1,-2 2,-4 2,-7 -2,-5 -5,-12 -9,-17 -1,-1 -1,-2 -2,-3 0,0 0,-1 -1,-1 -1,-3 -3,-5 -3,-6 -4,-6 -9,-9 -15,-11 -14,-4 -13,2 -23,2 0,0 0,0 0,0 0,0 -1,0 -2,0 1,-3 1,-5 1,-7 0,-3 0,-5 -1,-8 -8,-17 -12,-9 -27,-10 -1,-3 -2,-5 -3,-7 -3,-3 -8,-7 -12,-8 -6,3 -11,15 -11,15 -8,0 -14,-3 -19,1l0 0zm75 -4c2,5 4,11 6,16 1,1 1,1 1,2 3,0 5,0 7,0 2,-1 3,-1 4,-2 6,-1 9,1 13,3 3,5 4,4 8,7 4,4 3,8 9,7 7,-3 8,-7 20,-5 9,0 12,6 17,10 11,-2 13,-2 24,0 6,9 4,16 3,27 3,3 7,5 7,10 0,1 0,1 1,2 3,3 3,6 1,14 -1,5 -3,7 -5,13 3,5 8,5 13,15 5,10 3,13 5,24 6,4 16,8 22,4 4,-3 6,-5 7,-7 0,-5 -2,-9 -3,-14 0,0 0,0 0,0 0,-1 0,-1 0,-2 5,-7 9,-9 6,-19 -6,-6 -5,-7 -17,-7 -2,-2 -3,-5 -5,-8 -3,-5 -4,-3 -6,-9 0,0 0,0 1,0 -1,0 -1,0 -1,0 3,-7 9,-12 3,-23 -1,0 -1,-1 -2,-2 -2,-3 -6,-6 -11,-9 0,-1 0,-2 0,-2 0,-1 0,-1 0,-1 1,-6 2,-11 1,-16 -3,-5 -8,-9 -23,-5 -1,0 -1,-1 -2,-1 0,0 0,0 0,0 0,0 0,0 0,0 -6,-6 -10,-13 -18,-14 -19,-3 -6,9 -25,-1 -12,-6 -5,-3 -14,-21 -5,-5 -12,-2 -17,1 -10,6 -3,4 -14,2 -8,-1 -13,1 -16,11l0 0zm51 43c1,7 8,5 8,27 0,0 0,0 0,0 5,3 10,2 14,7 3,3 4,9 7,14 18,-1 18,6 28,7 6,-4 7,-10 6,-18 -2,-4 -6,-8 -12,-11 0,0 1,-1 1,-2 0,0 -1,0 -1,-1 2,-9 6,-6 3,-18 0,0 0,0 0,0 -10,-8 -12,-2 -21,1 -1,0 -1,-1 -2,-2 0,1 0,1 0,1 -1,-1 -1,-2 -1,-2 -6,-7 -17,-18 -30,-3l0 0zm-217 293c9,11 14,19 30,6 -1,-6 -4,-8 -6,-14 -1,-3 -2,-12 -3,-15 -9,-2 -13,-5 -15,-8 -4,-6 -1,-8 -3,-10 -1,0 -2,-1 -3,-1 -1,0 -4,0 -5,0 -13,-2 -13,-6 -21,-8 -2,1 -4,3 -5,4 -3,4 -3,9 -1,14 2,6 8,8 12,12 0,3 -1,5 -2,7 -1,1 -2,2 -2,4 -1,1 -1,4 1,8 10,10 13,0 23,1l0 0zm30 46c1,9 3,12 5,14 8,3 13,0 21,-3 6,-2 11,3 15,3 0,-9 1,-5 9,-8 0,0 0,-1 0,-2 0,-2 0,-3 0,-5 0,0 0,0 0,0 0,-1 0,-2 -1,-3 -1,-1 -1,-2 -2,-3 -1,-3 -2,-5 -2,-7 -20,-1 -25,-4 -29,-7 -3,-3 -4,-6 -8,-9 -1,0 -2,-1 -3,-2 -21,11 -23,10 -38,-4 -9,1 -19,4 -24,-1 -1,-1 -2,-1 -3,-1 -2,-12 -4,-12 0,-25 -4,-4 -8,-7 -10,-12 -5,-10 0,-12 5,-27 -2,-3 -1,-1 -5,-5 -3,-2 -4,-4 -5,-7 -5,-5 -6,-10 -7,-26 -8,-2 -8,-3 -15,-7 -6,1 -11,4 -13,8 0,3 0,6 1,10 1,7 1,7 -4,12 -4,8 -6,19 17,21 2,3 2,6 5,9 3,5 3,2 5,8 -3,5 -4,8 -5,11 0,1 -1,2 -1,3 -1,12 13,15 16,21 0,3 -1,5 -1,7 0,3 -1,5 -1,7 1,2 2,4 4,6 6,7 11,5 20,3 5,4 9,10 15,14 10,6 14,-1 22,-4 5,4 15,5 17,11l0 0zm82 40c9,12 18,9 27,-7 9,0 17,2 23,-1 1,0 3,-1 3,-1 3,-2 5,-5 5,-9 0,-1 0,-1 0,-1 -5,-4 -4,4 -12,-12 -20,10 -5,-4 -24,12 -2,2 -4,4 -4,4 -5,1 -8,1 -10,0 -13,-4 -6,-12 -24,-14 -2,0 -4,-1 -6,-1 -4,4 -3,6 -8,8 0,0 -1,0 -1,0 -1,1 -1,1 -1,1 -1,1 -2,2 -3,3 2,6 5,9 8,10 1,0 1,0 2,0 3,1 6,1 10,1 12,0 10,-2 15,7l0 0zm-226 -230c0,5 5,8 13,15 0,1 0,2 0,3 1,1 1,3 1,4 0,12 0,22 12,24 4,-4 9,-8 14,-11 -1,-4 -1,-9 -1,-13 -1,-1 -1,-3 -3,-4 -1,-1 -2,-2 -3,-3 -4,0 -6,-2 -8,-6 -1,-3 -2,-6 -2,-9 0,0 0,0 0,0 0,-2 1,-5 2,-8 2,-5 4,-6 8,-6 1,-1 2,-2 3,-4 2,-1 2,-2 3,-4 0,-4 0,-8 1,-12 -5,-4 -10,-7 -14,-11 -12,1 -12,12 -12,24 0,1 0,2 -1,3 0,1 0,2 0,4 -8,6 -13,10 -13,14l0 0zm127 89c0,0 1,1 1,1 -1,10 -6,13 2,21 12,2 11,-3 18,-1 11,3 19,-3 24,0 12,6 16,19 30,16 9,0 8,0 16,-2 1,-6 1,-10 0,-14 -2,-4 -5,-7 -8,-8 -7,3 -16,9 -21,-2 -1,-2 -2,-5 -2,-8 0,0 0,0 0,0 -7,-1 -12,-2 -17,-2 -5,0 -18,2 -21,-9 -1,-4 0,-7 0,-13 0,-3 -1,-10 -2,-15 -2,-1 -14,-2 -14,-11 -1,-3 0,-6 1,-8 3,-9 3,-8 -6,-13 -8,-3 -17,-3 -16,8 0,10 1,5 -3,13 -1,1 -2,2 -2,4 -1,2 -1,5 -1,8 9,12 17,0 24,19 0,0 0,1 0,1 0,0 0,1 0,1 -1,3 -2,5 -3,6 0,2 -1,3 -1,5 1,1 1,2 1,3l0 0zm-45 -89c1,4 4,7 10,10 8,5 1,7 11,11 10,-7 0,-5 17,-10 -2,-8 -2,-9 -2,-11 0,-2 0,-2 2,-10 -17,-5 -7,-4 -17,-10 -10,4 -3,6 -11,11 -6,3 -9,6 -10,9l0 0zm73 59c0,4 2,5 2,9 0,5 -2,3 -1,11 11,6 6,1 15,2 5,0 2,1 8,1 1,-4 2,-8 2,-12 0,-1 -1,-1 -1,-1 -11,-5 -4,-2 -12,-11 -4,0 -9,1 -13,1z"/>
 </g>
 <style type="text/css">
	<![CDATA[
	@font-face { font-family:"Proxima Nova Rg";font-variant:normal;font-weight:normal;src:url("#FontID0") format(svg)}
	.fil1 {fill:#636363}
	.fil0 {fill:#636363}
	.fnt0 {font-weight:normal;font-size:200px;font-family:'Proxima Nova Rg'}
	]]>
</style>
</svg>